<svg xmlns="http://www.w3.org/2000/svg" viewBox="0 0 24 24">
    <path d="M14 22V4a2 2 0 0 0-2-2H6a2 2 0 0 0-2 2v18" fill="none" stroke="#0f1b3e" stroke-width="2.5" stroke-linecap="round" stroke-linejoin="round"/>
    <line x1="3" y1="22" x2="15" y2="22" stroke="#0f1b3e" stroke-width="2.5" stroke-linecap="round"/>
    <rect x="6" y="5" width="6" height="3" rx="0.5" fill="#22c55e"/>
    <path d="M14 13h2a2 2 0 0 1 2 2v2a2 2 0 0 0 2 2 2 2 0 0 0 2-2V9.83a2 2 0 0 0-.59-1.42L18 5" fill="none" stroke="#0f1b3e" stroke-width="2.5" stroke-linecap="round" stroke-linejoin="round"/>
</svg>
